<svg xmlns="http://www.w3.org/2000/svg" viewBox="0 0 100 100"><defs><linearGradient id="car_b" x1="0" y1="0" x2="0" y2="1"><stop offset="0" stop-color="#74C0FC"/><stop offset="1" stop-color="#1864AB"/></linearGradient><linearGradient id="car_w" x1="0" y1="0" x2="0" y2="1"><stop offset="0" stop-color="#495057"/><stop offset="1" stop-color="#212529"/></linearGradient><radialGradient id="car_t32" cx="0.5" cy="0.35" r="0.8"><stop offset="0" stop-color="#868E96"/><stop offset="1" stop-color="#343A40"/></radialGradient><radialGradient id="car_t68" cx="0.5" cy="0.35" r="0.8"><stop offset="0" stop-color="#868E96"/><stop offset="1" stop-color="#343A40"/></radialGradient></defs><ellipse cx="50" cy="88" rx="34" ry="7" fill="#000000" opacity="0.2"/><path d="M16,62 q0,-10 10,-12 l8,-12 q2,-4 8,-4 h20 q6,0 9,5 l7,11 q10,1 10,12 l-2,6 H18 Z" fill="url(#car_b)" stroke="#1a1a2e" stroke-opacity="0.16" stroke-width="2.5"/><path d="M40,38 l6,-8 h12 l6,8 Z M62,38 l8,0 l5,8 h-13 Z" fill="#D0EBFF" stroke="#1a1a2e" stroke-opacity="0.22" stroke-width="2"/><ellipse cx="50" cy="48" rx="22" ry="5" fill="#ffffff" opacity="0.3"/><circle cx="32" cy="68" r="10" fill="url(#car_t32)" stroke="#1a1a2e" stroke-opacity="0.16" stroke-width="2.5"/><circle cx="32" cy="68" r="4" fill="#DEE2E6"/><circle cx="68" cy="68" r="10" fill="url(#car_t68)" stroke="#1a1a2e" stroke-opacity="0.16" stroke-width="2.5"/><circle cx="68" cy="68" r="4" fill="#DEE2E6"/></svg>