<svg xmlns="http://www.w3.org/2000/svg" viewBox="0 0 100 100"><defs><linearGradient id="rn_c" x1="0" y1="0" x2="0" y2="1"><stop offset="0" stop-color="#FFFFFF"/><stop offset="1" stop-color="#C9D8E8"/></linearGradient><linearGradient id="rn_d" x1="0" y1="0" x2="0" y2="1"><stop offset="0" stop-color="#9ADCFF"/><stop offset="1" stop-color="#339AF0"/></linearGradient><linearGradient id="rn_d-12" x1="0" y1="0" x2="0" y2="1"><stop offset="0" stop-color="#9ADCFF"/><stop offset="1" stop-color="#339AF0"/></linearGradient><linearGradient id="rn_d0" x1="0" y1="0" x2="0" y2="1"><stop offset="0" stop-color="#9ADCFF"/><stop offset="1" stop-color="#339AF0"/></linearGradient><linearGradient id="rn_d12" x1="0" y1="0" x2="0" y2="1"><stop offset="0" stop-color="#9ADCFF"/><stop offset="1" stop-color="#339AF0"/></linearGradient></defs><ellipse cx="50" cy="88" rx="30" ry="7" fill="#000000" opacity="0.2"/><path d="M30,52 a12,12 0 0 1 2,-24 a15,15 0 0 1 29,-4 a12,12 0 0 1 17,12 a10,10 0 0 1 -6,16 Z" fill="url(#rn_c)" stroke="#1a1a2e" stroke-opacity="0.16" stroke-width="2.5"/><ellipse cx="46" cy="36" rx="14" ry="6" fill="#ffffff" opacity="0.5"/><path d="M38,65 C42.9,71.3 41.85,76.9 38,76.9 C34.15,76.9 33.1,71.3 38,65 Z" fill="url(#rn_d-12)" stroke="#1a1a2e" stroke-opacity="0.22" stroke-width="2"/><path d="M50,65 C54.9,71.3 53.85,76.9 50,76.9 C46.15,76.9 45.1,71.3 50,65 Z" fill="url(#rn_d0)" stroke="#1a1a2e" stroke-opacity="0.22" stroke-width="2"/><path d="M62,65 C66.9,71.3 65.85,76.9 62,76.9 C58.15,76.9 57.1,71.3 62,65 Z" fill="url(#rn_d12)" stroke="#1a1a2e" stroke-opacity="0.22" stroke-width="2"/></svg>