<svg xmlns="http://www.w3.org/2000/svg" viewBox="0 0 100 100"><defs><linearGradient id="clh" x1="0" y1="0" x2="0" y2="1"><stop offset="0" stop-color="#FFDDB8"/><stop offset="1" stop-color="#EFA268"/></linearGradient></defs><ellipse cx="50" cy="88" rx="30" ry="7" fill="#000000" opacity="0.2"/><rect x="22" y="38" width="22" height="32" rx="10" fill="url(#clh)" stroke="#1a1a2e" stroke-opacity="0.16" stroke-width="2.5"/><rect x="56" y="38" width="22" height="32" rx="10" fill="url(#clh)" stroke="#1a1a2e" stroke-opacity="0.16" stroke-width="2.5"/><path d="M30,46 h8 M30,54 h8 M30,62 h8 M62,46 h8 M62,54 h8 M62,62 h8" stroke="#B0703C" stroke-width="2.2" stroke-linecap="round" opacity="0.6"/><path d="M14,42 q-6,8 0,16 M86,42 q6,8 0,16" stroke="#FFD43B" stroke-width="3.5" fill="none" stroke-linecap="round"/><path d="M50,19 Q51.26,24.74 57,26 Q51.26,27.26 50,33 Q48.74,27.26 43,26 Q48.74,24.74 50,19 Z" fill="#FFFFFF" opacity="0.95"/></svg>