<svg xmlns="http://www.w3.org/2000/svg" viewBox="0 0 100 100"><defs><radialGradient id="lask" cx="0.5" cy="0.35" r="0.8"><stop offset="0" stop-color="#FFE58A"/><stop offset="1" stop-color="#FFB52E"/></radialGradient><linearGradient id="la_t" x1="0" y1="0" x2="0" y2="1"><stop offset="0" stop-color="#9ADCFF"/><stop offset="1" stop-color="#339AF0"/></linearGradient></defs><ellipse cx="50" cy="86" rx="30" ry="7" fill="#000000" opacity="0.2"/><circle cx="50" cy="46" r="32" fill="url(#lask)" stroke="#1a1a2e" stroke-opacity="0.16" stroke-width="2.5"/><ellipse cx="37" cy="28" rx="12" ry="7" fill="#ffffff" opacity="0.28" transform="rotate(-18 37 28)"/><path d="M31,43 Q38,34 45,43" fill="none" stroke="#2b2b3a" stroke-width="3.6" stroke-linecap="round"/><path d="M55,43 Q62,34 69,43" fill="none" stroke="#2b2b3a" stroke-width="3.6" stroke-linecap="round"/><path d="M34,53 Q50,53 66,53 Q66,71 50,71 Q34,71 34,53 Z" fill="#7a2e2e" stroke="#1a1a2e" stroke-opacity="0.16" stroke-width="2.5"/><path d="M36,54 Q50,54 64,54 Q63,60 50,60 Q37,60 36,54 Z" fill="#ffffff"/><path d="M74,45 C78.9,51.3 77.85,56.9 74,56.9 C70.15,56.9 69.1,51.3 74,45 Z" fill="url(#la_t)" stroke="#1a1a2e" stroke-opacity="0.22" stroke-width="2"/></svg>