<svg xmlns="http://www.w3.org/2000/svg" viewBox="0 0 100 100"><defs><radialGradient id="shsk" cx="0.5" cy="0.35" r="0.8"><stop offset="0" stop-color="#FFE58A"/><stop offset="1" stop-color="#FFB52E"/></radialGradient><linearGradient id="sh_s" x1="0" y1="0" x2="0" y2="1"><stop offset="0" stop-color="#D0EBFF"/><stop offset="1" stop-color="#74C0FC"/></linearGradient></defs><ellipse cx="50" cy="86" rx="30" ry="7" fill="#000000" opacity="0.2"/><circle cx="50" cy="46" r="32" fill="url(#shsk)" stroke="#1a1a2e" stroke-opacity="0.16" stroke-width="2.5"/><ellipse cx="37" cy="28" rx="12" ry="7" fill="#ffffff" opacity="0.28" transform="rotate(-18 37 28)"/><circle cx="38" cy="40" r="6.6" fill="#fff" stroke="#2b2b3a" stroke-width="2"/><circle cx="62" cy="40" r="6.6" fill="#fff" stroke="#2b2b3a" stroke-width="2"/><circle cx="38" cy="41" r="2.6" fill="#2b2b3a"/><circle cx="62" cy="41" r="2.6" fill="#2b2b3a"/><ellipse cx="50" cy="61" rx="7" ry="9" fill="#7a2e2e" stroke="#1a1a2e" stroke-opacity="0.16" stroke-width="2.5"/><path d="M78,28 C82.2,33.4 81.3,38.2 78,38.2 C74.7,38.2 73.8,33.4 78,28 Z" fill="url(#sh_s)" stroke="#1a1a2e" stroke-opacity="0.22" stroke-width="2"/><path d="M50,8 v6 M28,14 l4,5 M72,14 l-4,5" stroke="#F08C00" stroke-width="3.5" stroke-linecap="round"/></svg>