<svg xmlns="http://www.w3.org/2000/svg" viewBox="0 0 100 100"><defs></defs><ellipse cx="50" cy="88" rx="20" ry="7" fill="#000000" opacity="0.2"/><path d="M50,22 Q53.96,40.04 72,44 Q53.96,47.96 50,66 Q46.04,47.96 28,44 Q46.04,40.04 50,22 Z" fill="#FFE066" opacity="0.95"/><path d="M26,55 Q27.98,64.02 37,66 Q27.98,67.98 26,77 Q24.02,67.98 15,66 Q24.02,64.02 26,55 Z" fill="#FFFFFF" opacity="0.95"/><path d="M74,55 Q76.34,65.66 87,68 Q76.34,70.34 74,81 Q71.66,70.34 61,68 Q71.66,65.66 74,55 Z" fill="#FFD6E0" opacity="0.95"/><path d="M72,14 Q73.44,20.56 80,22 Q73.44,23.44 72,30 Q70.56,23.44 64,22 Q70.56,20.56 72,14 Z" fill="#FFFFFF" opacity="0.95"/></svg>