<svg xmlns="http://www.w3.org/2000/svg" viewBox="0 0 100 100"><defs><linearGradient id="bch_s" x1="0" y1="0" x2="0" y2="1"><stop offset="0" stop-color="#F4E3C2"/><stop offset="1" stop-color="#D9B77C"/></linearGradient></defs><ellipse cx="50" cy="88" rx="30" ry="7" fill="#000000" opacity="0.2"/><ellipse cx="50" cy="82" rx="30" ry="6" fill="url(#bch_s)" stroke="#1a1a2e" stroke-opacity="0.22" stroke-width="2"/><path d="M50,34 V82" stroke="#8A5A3B" stroke-width="5" stroke-linecap="round"/><path d="M50,30 L18,52 A34,34 0 0 0 34,52 Z" fill="#FF6B6B" stroke="#1a1a2e" stroke-opacity="0.22" stroke-width="2"/><path d="M50,30 L34,52 A34,34 0 0 0 50,52 Z" fill="#FFFFFF" stroke="#1a1a2e" stroke-opacity="0.22" stroke-width="2"/><path d="M50,30 L50,52 A34,34 0 0 0 66,52 Z" fill="#FF6B6B" stroke="#1a1a2e" stroke-opacity="0.22" stroke-width="2"/><path d="M50,30 L66,52 A34,34 0 0 0 82,52 Z" fill="#FFFFFF" stroke="#1a1a2e" stroke-opacity="0.22" stroke-width="2"/><circle cx="50" cy="28" r="4" fill="#FF6B6B" stroke="#1a1a2e" stroke-opacity="0.22" stroke-width="2"/></svg>