<svg xmlns="http://www.w3.org/2000/svg" viewBox="0 0 100 100"><defs><linearGradient id="cof_c" x1="0" y1="0" x2="0" y2="1"><stop offset="0" stop-color="#FFFFFF"/><stop offset="1" stop-color="#E7D8C9"/></linearGradient><linearGradient id="cof_s" x1="0" y1="0" x2="0" y2="1"><stop offset="0" stop-color="#D8C3B0"/><stop offset="1" stop-color="#B08968"/></linearGradient></defs><ellipse cx="50" cy="88" rx="28" ry="7" fill="#000000" opacity="0.2"/><ellipse cx="50" cy="80" rx="26" ry="7" fill="url(#cof_s)" stroke="#1a1a2e" stroke-opacity="0.16" stroke-width="2.5"/><path d="M30,38 h40 l-5,34 a6,6 0 0 1 -6,5 H41 a6,6 0 0 1 -6,-5 Z" fill="url(#cof_c)" stroke="#1a1a2e" stroke-opacity="0.16" stroke-width="2.5"/><path d="M70,44 c8,0 10,12 2,15 c-3,1 -6,1 -8,0" fill="none" stroke="#B08968" stroke-width="6" stroke-linecap="round"/><ellipse cx="42" cy="48" rx="6" ry="12" fill="#ffffff" opacity="0.35" transform="rotate(-8 42 48)"/><path d="M42,30 c-4,-6 4,-8 0,-14 M54,30 c-4,-6 4,-8 0,-14" stroke="#ADB5BD" stroke-width="3.5" fill="none" stroke-linecap="round"/></svg>